<svg xmlns="http://www.w3.org/2000/svg" fill="none" viewBox="0 0 180 135"><g filter="url(#filter0_f)"><path fill="url(#paint0_linear)" fill-rule="evenodd" d="M129.6 122.4L128.698 123.3H52.0075H13.2L52.0075 122.4H129.6Z" clip-rule="evenodd"/></g><path fill="url(#paint1_linear)" fill-rule="evenodd" d="M130.8 10.8H118.8V55.8H130.8V10.8Z" clip-rule="evenodd"/><path fill="url(#paint2_linear)" fill-rule="evenodd" d="M118.8 10.8H44.4L25.2 33.3L44.4 55.8H118.8V10.8Z" clip-rule="evenodd"/><path fill="url(#paint3_linear)" fill-rule="evenodd" d="M148.8 55.8H134.4L115.2 78.3H128.677C129.263 78.3 129.819 78.0435 130.199 77.5982L148.8 55.8Z" clip-rule="evenodd"/><path fill="url(#paint4_linear)" fill-rule="evenodd" d="M115.2 33.3H128.677C129.263 33.3 129.819 33.5565 130.199 34.0017L148.8 55.8H134.4L115.2 33.3Z" clip-rule="evenodd"/><path fill="url(#paint5_linear)" fill-rule="evenodd" d="M45.6 35.3C45.6 34.1954 46.4954 33.3 47.6 33.3H117.154C117.749 33.3 118.312 33.5643 118.692 34.0213L136.8 55.8L118.692 77.5786C118.312 78.0356 117.749 78.3 117.154 78.3H47.6C46.4954 78.3 45.6 77.4046 45.6 76.3V35.3Z" clip-rule="evenodd"/><path fill="url(#paint6_linear)" fill-rule="evenodd" d="M68.4 122.4H129.6C129.6 113.453 119.929 106.2 108 106.2C101.301 106.2 95.3134 108.488 91.3515 112.078C89.1611 111.199 86.6582 110.7 84 110.7C75.3844 110.7 68.4 115.938 68.4 122.4Z" clip-rule="evenodd"/><rect width="24" height="44.1" x="78" y="78.3" fill="url(#paint7_linear)"/><rect width="24" height="44.1" x="78" y="78.3" fill="url(#paint8_linear)"/><path fill="url(#paint9_linear)" fill-rule="evenodd" d="M106.8 122.4H55.2C55.2 114.944 63.3537 108.9 73.4118 108.9C79.0604 108.9 84.1083 110.806 87.4488 113.798C89.2956 113.066 91.4059 112.65 93.6471 112.65C100.911 112.65 106.8 117.015 106.8 122.4Z" clip-rule="evenodd"/><path fill="url(#paint10_linear)" fill-rule="evenodd" d="M78 78.3H100.2L78 90V78.3Z" clip-rule="evenodd"/><path fill="#fff" fill-rule="evenodd" d="M84.0599 42.3428C84.0273 41.8295 84.5733 41.4 85.2585 41.4H92.3415C93.0266 41.4 93.5727 41.8295 93.5401 42.3428L92.4544 59.4428C92.424 59.9227 91.8963 60.3 91.2558 60.3H86.3442C85.7037 60.3 85.176 59.9227 85.1456 59.4428L84.0599 42.3428Z" clip-rule="evenodd"/><path fill="#fff" d="M93.6 66.15C93.6 68.3868 91.451 70.2 88.8 70.2C86.149 70.2 84 68.3868 84 66.15C84 63.9133 86.149 62.1 88.8 62.1C91.451 62.1 93.6 63.9133 93.6 66.15Z"/><defs><filter id="filter0_f" width="121.837" height="6.337" x="10.482" y="119.682" color-interpolation-filters="sRGB" filterUnits="userSpaceOnUse"><feFlood flood-opacity="0" result="BackgroundImageFix"/><feBlend in="SourceGraphic" in2="BackgroundImageFix" mode="normal" result="shape"/><feGaussianBlur result="effect1_foregroundBlur" stdDeviation="1.359"/></filter><linearGradient id="paint0_linear" x1="62.621" x2="62.609" y1="122.139" y2="123.679" gradientUnits="userSpaceOnUse"><stop stop-color="#A1A3A8"/><stop offset="1" stop-color="#C1C3C7"/></linearGradient><linearGradient id="paint1_linear" x1="129.623" x2="129.623" y1="19.629" y2="55.8" gradientUnits="userSpaceOnUse"><stop stop-color="#C0C4CA"/><stop offset="1" stop-color="#676E79"/></linearGradient><linearGradient id="paint2_linear" x1="75.509" x2="100.047" y1=".564" y2="55.52" gradientUnits="userSpaceOnUse"><stop stop-color="#DDDEE0"/><stop offset="1" stop-color="#CACCD0"/></linearGradient><linearGradient id="paint3_linear" x1="155.926" x2="149.594" y1="60.184" y2="84.449" gradientUnits="userSpaceOnUse"><stop stop-color="#D41E33"/><stop offset="1" stop-color="#C82134"/></linearGradient><linearGradient id="paint4_linear" x1="110.141" x2="116.243" y1="37.543" y2="61.703" gradientUnits="userSpaceOnUse"><stop stop-color="#FFB8BE"/><stop offset="1" stop-color="#EF394E"/></linearGradient><linearGradient id="paint5_linear" x1="138.051" x2="143.676" y1="80.444" y2="32.276" gradientUnits="userSpaceOnUse"><stop stop-color="#EF394E"/><stop offset=".593" stop-color="#EF4959"/><stop offset="1" stop-color="#FF848D"/></linearGradient><linearGradient id="paint6_linear" x1="105.778" x2="109.141" y1="107.042" y2="123.872" gradientUnits="userSpaceOnUse"><stop stop-color="#39AE00"/><stop offset="1" stop-color="#6BB927"/></linearGradient><linearGradient id="paint7_linear" x1="88.935" x2="58.432" y1="63.707" y2="82.598" gradientUnits="userSpaceOnUse"><stop stop-color="#CACCD0"/><stop offset=".486" stop-color="#DCDDDF"/><stop offset="1" stop-color="#DDDEE0"/></linearGradient><linearGradient id="paint8_linear" x1="102" x2="78" y1="66.514" y2="66.514" gradientUnits="userSpaceOnUse"><stop stop-color="#fff" stop-opacity=".01"/><stop offset="1" stop-opacity=".109"/></linearGradient><linearGradient id="paint9_linear" x1="75.285" x2="72.513" y1="109.602" y2="123.639" gradientUnits="userSpaceOnUse"><stop stop-color="#9DC44D"/><stop offset="1" stop-color="#6BB927"/></linearGradient><linearGradient id="paint10_linear" x1="69.917" x2="71.444" y1="79.653" y2="88.777" gradientUnits="userSpaceOnUse"><stop stop-color="#A1A3A8"/><stop offset="1" stop-color="#A1A3A8" stop-opacity=".01"/></linearGradient></defs></svg>