<svg xmlns="http://www.w3.org/2000/svg" fill="none" viewBox="0 0 180 135"><g filter="url(#filter0_f)"><path fill="url(#paint0_linear)" fill-rule="evenodd" d="M40.5 122.4L41.1767 123.3H98.6944H127.8L98.6944 122.4H40.5Z" clip-rule="evenodd"/></g><path fill="url(#paint1_linear)" fill-rule="evenodd" d="M61.2 14.4V105.3H123.732C129.458 105.3 134.1 100.658 134.1 94.932V14.4H61.2Z" clip-rule="evenodd"/><rect width="38.88" height="3.888" fill="url(#paint2_linear)" transform="matrix(-1 0 0 1 113.58 26.1)"/><rect width="3.888" height="3.888" fill="#A1A3A8" transform="matrix(-1 0 0 1 121.356 26.1)"/><rect width="38.88" height="3.888" fill="url(#paint3_linear)" transform="matrix(-1 0 0 1 113.58 35.172)"/><rect width="3.888" height="3.888" fill="#A1A3A8" transform="matrix(-1 0 0 1 121.356 35.172)"/><rect width="38.88" height="3.888" fill="url(#paint4_linear)" transform="matrix(-1 0 0 1 113.58 44.244)"/><rect width="3.888" height="3.888" fill="#A1A3A8" transform="matrix(-1 0 0 1 121.356 44.244)"/><rect width="38.88" height="3.888" fill="url(#paint5_linear)" transform="matrix(-1 0 0 1 113.58 53.316)"/><rect width="3.888" height="3.888" fill="#A1A3A8" transform="matrix(-1 0 0 1 121.356 53.316)"/><rect width="38.88" height="3.888" fill="url(#paint6_linear)" transform="matrix(-1 0 0 1 113.58 62.388)"/><rect width="3.888" height="3.888" fill="#A1A3A8" transform="matrix(-1 0 0 1 121.356 62.388)"/><rect width="38.88" height="3.888" fill="url(#paint7_linear)" transform="matrix(-1 0 0 1 113.58 71.46)"/><rect width="3.888" height="3.888" fill="#A1A3A8" transform="matrix(-1 0 0 1 121.356 71.46)"/><rect width="38.88" height="3.888" fill="url(#paint8_linear)" transform="matrix(-1 0 0 1 113.58 80.532)"/><rect width="3.888" height="3.888" fill="#A1A3A8" transform="matrix(-1 0 0 1 121.356 80.532)"/><rect width="38.88" height="3.888" fill="url(#paint9_linear)" transform="matrix(-1 0 0 1 113.58 89.604)"/><rect width="3.888" height="3.888" fill="#A1A3A8" transform="matrix(-1 0 0 1 121.356 89.604)"/><path fill="url(#paint10_linear)" fill-rule="evenodd" d="M112.95 91.8H40.5V93.8919C40.5 99.6953 45.2046 104.4 51.0081 104.4H123.3C117.584 104.4 112.95 99.7661 112.95 94.05V91.8Z" clip-rule="evenodd"/><defs><filter id="filter0_f" width="92.737" height="6.337" x="37.782" y="119.682" color-interpolation-filters="sRGB" filterUnits="userSpaceOnUse"><feFlood flood-opacity="0" result="BackgroundImageFix"/><feBlend in="SourceGraphic" in2="BackgroundImageFix" mode="normal" result="shape"/><feGaussianBlur result="effect1_foregroundBlur" stdDeviation="1.359"/></filter><linearGradient id="paint0_linear" x1="90.734" x2="90.75" y1="122.139" y2="123.679" gradientUnits="userSpaceOnUse"><stop stop-color="#A1A3A8"/><stop offset="1" stop-color="#C1C3C7"/></linearGradient><linearGradient id="paint1_linear" x1="148.663" x2="148.663" y1="14.4" y2="105.3" gradientUnits="userSpaceOnUse"><stop stop-color="#EEE"/><stop offset=".895" stop-color="#DDD"/><stop offset="1" stop-color="#EDEDED"/></linearGradient><linearGradient id="paint2_linear" x1="38.88" x2="0" y1="1.944" y2="1.944" gradientUnits="userSpaceOnUse"><stop stop-color="#C0C2C5"/><stop offset="1" stop-color="#A1A3A8"/></linearGradient><linearGradient id="paint3_linear" x1="38.88" x2="0" y1="1.944" y2="1.944" gradientUnits="userSpaceOnUse"><stop stop-color="#C0C2C5"/><stop offset="1" stop-color="#A1A3A8"/></linearGradient><linearGradient id="paint4_linear" x1="38.88" x2="0" y1="1.944" y2="1.944" gradientUnits="userSpaceOnUse"><stop stop-color="#C0C2C5"/><stop offset="1" stop-color="#A1A3A8"/></linearGradient><linearGradient id="paint5_linear" x1="38.88" x2="0" y1="1.944" y2="1.944" gradientUnits="userSpaceOnUse"><stop stop-color="#C0C2C5"/><stop offset="1" stop-color="#A1A3A8"/></linearGradient><linearGradient id="paint6_linear" x1="38.88" x2="0" y1="1.944" y2="1.944" gradientUnits="userSpaceOnUse"><stop stop-color="#C0C2C5"/><stop offset="1" stop-color="#A1A3A8"/></linearGradient><linearGradient id="paint7_linear" x1="38.88" x2="0" y1="1.944" y2="1.944" gradientUnits="userSpaceOnUse"><stop stop-color="#C0C2C5"/><stop offset="1" stop-color="#A1A3A8"/></linearGradient><linearGradient id="paint8_linear" x1="38.88" x2="0" y1="1.944" y2="1.944" gradientUnits="userSpaceOnUse"><stop stop-color="#C0C2C5"/><stop offset="1" stop-color="#A1A3A8"/></linearGradient><linearGradient id="paint9_linear" x1="38.88" x2="0" y1="1.944" y2="1.944" gradientUnits="userSpaceOnUse"><stop stop-color="#C0C2C5"/><stop offset="1" stop-color="#A1A3A8"/></linearGradient><linearGradient id="paint10_linear" x1="139.841" x2="139.841" y1="91.8" y2="104.4" gradientUnits="userSpaceOnUse"><stop stop-color="#F0F0F1"/><stop offset=".678" stop-color="#E0E0E2"/><stop offset="1" stop-color="#C0C2C5"/></linearGradient></defs></svg>